<svg width="600" height="600" viewBox="0 0 600 600" xmlns="http://www.w3.org/2000/svg">
  <defs>
    <!-- Background gradient -->
    <linearGradient id="bg-gradient-animal" x1="0%" y1="0%" x2="0%" y2="100%">
      <stop offset="0%" stop-color="#34d399" />
      <stop offset="100%" stop-color="#10b981" />
    </linearGradient>
    
    <!-- Tree gradient -->
    <linearGradient id="tree-gradient-animal" x1="0%" y1="0%" x2="0%" y2="100%">
      <stop offset="0%" stop-color="#065f46" />
      <stop offset="100%" stop-color="#047857" />
    </linearGradient>
    
    <!-- Grass pattern -->
    <pattern id="grass-pattern" width="100" height="20" patternUnits="userSpaceOnUse">
      <path d="M 10,20 L 10,10 C 10,5 5,0 10,0" stroke="#15803d" fill="none" stroke-width="2" />
      <path d="M 30,20 L 30,5 C 30,0 25,0 20,5" stroke="#15803d" fill="none" stroke-width="2" />
      <path d="M 40,20 L 40,10 C 40,5 45,0 50,0" stroke="#15803d" fill="none" stroke-width="2" />
      <path d="M 60,20 L 60,5 C 60,0 65,0 70,5" stroke="#15803d" fill="none" stroke-width="2" />
      <path d="M 80,20 L 80,10 C 80,5 75,0 85,0" stroke="#15803d" fill="none" stroke-width="2" />
    </pattern>
  </defs>
  
  <!-- Background -->
  <rect width="600" height="600" fill="url(#bg-gradient-animal)" />
  
  <!-- Sky -->
  <rect width="600" height="300" fill="#a5f3fc" opacity="0.3" />
  
  <!-- Sun -->
  <circle cx="500" cy="100" r="50" fill="#fcd34d" opacity="0.7" />
  
  <!-- Clouds -->
  <g fill="white" opacity="0.6">
    <ellipse cx="150" cy="100" rx="40" ry="20" />
    <ellipse cx="180" cy="90" rx="50" ry="30" />
    <ellipse cx="220" cy="105" rx="40" ry="20" />
    
    <ellipse cx="450" cy="150" rx="35" ry="15" />
    <ellipse cx="480" cy="140" rx="40" ry="25" />
    <ellipse cx="520" cy="155" rx="30" ry="15" />
  </g>
  
  <!-- Trees -->
  <g transform="translate(70, 250)">
    <rect x="-10" y="0" width="20" height="80" fill="#7c2d12" />
    <ellipse cx="0" cy="-60" rx="50" ry="70" fill="url(#tree-gradient-animal)" />
  </g>
  
  <g transform="translate(530, 280)">
    <rect x="-8" y="0" width="16" height="60" fill="#7c2d12" />
    <ellipse cx="0" cy="-40" rx="40" ry="50" fill="url(#tree-gradient-animal)" />
  </g>
  
  <!-- Ground -->
  <rect x="0" y="300" width="600" height="300" fill="#15803d" />
  <rect x="0" y="300" width="600" height="40" fill="url(#grass-pattern)" />
  
  <!-- Animals -->
  
  <!-- Elephant -->
  <g transform="translate(400, 450)">
    <!-- Body -->
    <ellipse cx="0" cy="0" rx="60" ry="40" fill="#9ca3af" />
    
    <!-- Head -->
    <circle cx="-50" cy="-20" r="30" fill="#9ca3af" />
    
    <!-- Trunk -->
    <path d="M -70,-10 C -90,0 -95,20 -85,40" stroke="#9ca3af" stroke-width="15" fill="none" />
    
    <!-- Ears -->
    <ellipse cx="-60" cy="-35" rx="20" ry="25" fill="#9ca3af" transform="rotate(-20, -60, -35)" />
    <ellipse cx="-40" cy="-35" rx="20" ry="25" fill="#9ca3af" transform="rotate(20, -40, -35)" />
    
    <!-- Legs -->
    <rect x="-40" y="20" width="15" height="40" fill="#9ca3af" rx="5" />
    <rect x="-10" y="20" width="15" height="40" fill="#9ca3af" rx="5" />
    <rect x="15" y="20" width="15" height="40" fill="#9ca3af" rx="5" />
    <rect x="40" y="20" width="15" height="40" fill="#9ca3af" rx="5" />
    
    <!-- Eyes -->
    <circle cx="-60" cy="-25" r="3" fill="black" />
    
    <!-- Tail -->
    <path d="M 50,0 C 70,0 80,-20 85,-40" stroke="#9ca3af" stroke-width="5" fill="none" />
  </g>
  
  <!-- Lion -->
  <g transform="translate(180, 470)">
    <!-- Body -->
    <ellipse cx="0" cy="0" rx="40" ry="25" fill="#d97706" />
    
    <!-- Head -->
    <circle cx="30" cy="-15" r="25" fill="#d97706" />
    
    <!-- Mane -->
    <circle cx="30" cy="-15" r="35" fill="#b45309" stroke="#d97706" stroke-width="2" />
    
    <!-- Legs -->
    <rect x="-30" y="10" width="10" height="30" fill="#d97706" rx="3" />
    <rect x="-10" y="10" width="10" height="30" fill="#d97706" rx="3" />
    <rect x="10" y="10" width="10" height="30" fill="#d97706" rx="3" />
    <rect x="30" y="10" width="10" height="30" fill="#d97706" rx="3" />
    
    <!-- Eyes -->
    <circle cx="40" cy="-20" r="3" fill="black" />
    
    <!-- Nose -->
    <circle cx="50" cy="-10" r="5" fill="#b45309" />
    
    <!-- Tail -->
    <path d="M -30,0 C -50,0 -60,-20 -55,-40" stroke="#d97706" stroke-width="5" fill="none" />
    <circle cx="-55" cy="-45" r="5" fill="#b45309" />
  </g>
  
  <!-- Monkey -->
  <g transform="translate(300, 200)">
    <!-- Body -->
    <ellipse cx="0" cy="0" rx="20" ry="30" fill="#7c2d12" />
    
    <!-- Head -->
    <circle cx="0" cy="-40" r="20" fill="#92400e" />
    
    <!-- Arms -->
    <path d="M -10,-20 C -30,-10 -40,10 -30,30" stroke="#7c2d12" stroke-width="8" fill="none" />
    <path d="M 10,-20 C 30,-10 40,10 30,30" stroke="#7c2d12" stroke-width="8" fill="none" />
    
    <!-- Legs -->
    <path d="M -10,20 C -15,40 -20,60 -10,70" stroke="#7c2d12" stroke-width="10" fill="none" />
    <path d="M 10,20 C 15,40 20,60 10,70" stroke="#7c2d12" stroke-width="10" fill="none" />
    
    <!-- Tail -->
    <path d="M 0,25 C 20,40 30,60 20,90" stroke="#7c2d12" stroke-width="5" fill="none" />
    
    <!-- Face -->
    <circle cx="-7" cy="-45" r="3" fill="black" />
    <circle cx="7" cy="-45" r="3" fill="black" />
    <ellipse cx="0" cy="-35" rx="8" ry="5" fill="#92400e" />
    <path d="M -5,-35 C 0,-30 5,-30 5,-35" fill="none" stroke="black" stroke-width="1" />
  </g>
  
  <!-- Butterfly -->
  <g transform="translate(250, 100)">
    <!-- Body -->
    <line x1="0" y1="-10" x2="0" y2="10" stroke="black" stroke-width="2" />
    
    <!-- Wings -->
    <path d="M 0,0 C -20,-20 -30,-5 -20,10 C -30,20 -20,30 0,10" fill="#ec4899" />
    <path d="M 0,0 C 20,-20 30,-5 20,10 C 30,20 20,30 0,10" fill="#db2777" />
    
    <!-- Antennae -->
    <path d="M 0,-10 C -5,-15 -10,-15 -10,-10" fill="none" stroke="black" stroke-width="1" />
    <path d="M 0,-10 C 5,-15 10,-15 10,-10" fill="none" stroke="black" stroke-width="1" />
    <circle cx="-10" cy="-10" r="1" fill="black" />
    <circle cx="10" cy="-10" r="1" fill="black" />
  </g>
  
  <!-- Flowers -->
  <g transform="translate(150, 320)">
    <line x1="0" y1="0" x2="0" y2="20" stroke="green" stroke-width="2" />
    <circle cx="0" cy="0" r="5" fill="#f43f5e" />
    <circle cx="-4" cy="-4" r="5" fill="#f43f5e" />
    <circle cx="4" cy="-4" r="5" fill="#f43f5e" />
    <circle cx="-4" cy="4" r="5" fill="#f43f5e" />
    <circle cx="4" cy="4" r="5" fill="#f43f5e" />
    <circle cx="0" cy="0" r="3" fill="#fcd34d" />
  </g>
  
  <g transform="translate(450, 330)">
    <line x1="0" y1="0" x2="0" y2="20" stroke="green" stroke-width="2" />
    <circle cx="0" cy="0" r="5" fill="#f43f5e" />
    <circle cx="-4" cy="-4" r="5" fill="#f43f5e" />
    <circle cx="4" cy="-4" r="5" fill="#f43f5e" />
    <circle cx="-4" cy="4" r="5" fill="#f43f5e" />
    <circle cx="4" cy="4" r="5" fill="#f43f5e" />
    <circle cx="0" cy="0" r="3" fill="#fcd34d" />
  </g>
  
  <!-- Birds -->
  <g transform="translate(350, 120)">
    <path d="M 0,0 C -5,-5 -10,0 -5,5 C 0,10 5,5 0,0 Z" fill="#0284c7" />
    <path d="M 0,0 C 5,-5 10,0 5,5 C 0,10 -5,5 0,0 Z" fill="#0ea5e9" />
    <circle cx="0" cy="0" r="2" fill="black" />
    <path d="M 2,0 L 5,0" stroke="black" stroke-width="1" />
  </g>
  
  <g transform="translate(400, 90)">
    <path d="M 0,0 C -4,-4 -8,0 -4,4 C 0,8 4,4 0,0 Z" fill="#0284c7" />
    <path d="M 0,0 C 4,-4 8,0 4,4 C 0,8 -4,4 0,0 Z" fill="#0ea5e9" />
    <circle cx="0" cy="0" r="1.5" fill="black" />
    <path d="M 1.5,0 L 4,0" stroke="black" stroke-width="1" />
  </g>
</svg>