<?xml version="1.0" encoding="UTF-8"?>
<svg xmlns="http://www.w3.org/2000/svg" viewBox="0 0 100 100">
  <path d="M50 20 L60 10 L70 20 L80 10 L75 30 L90 35 L75 45 L90 55 L75 60 L80 80 L60 70 L50 90 L40 70 L20 80 L25 60 L10 55 L25 45 L10 35 L25 30 L20 10 L30 20 L40 10 Z" fill="#f0ad4e" />
  <path d="M50 30 L57 25 L64 30 L70 25 L67 40 L77 42 L67 50 L77 58 L67 60 L70 75 L57 67 L50 80 L43 67 L30 75 L33 60 L23 58 L33 50 L23 42 L33 40 L30 25 L36 30 L43 25 Z" fill="#d9534f" />
  <circle cx="50" cy="50" r="15" fill="#fff" opacity="0.8" />
  <circle cx="50" cy="50" r="10" fill="#f0ad4e" />
  <circle cx="50" cy="50" r="5" fill="#fff" />
</svg>