<svg xmlns="http://www.w3.org/2000/svg" viewBox="0 0 200 200">
  <defs>
    <linearGradient id="grad_female_2" x1="0%" y1="0%" x2="100%" y2="100%">
      <stop offset="0%" style="stop-color:#FF5F6D;stop-opacity:1" />
      <stop offset="100%" style="stop-color:#FFC371;stop-opacity:1" />
    </linearGradient>
  </defs>
  <circle cx="100" cy="100" r="90" fill="url(#grad_female_2)"/>
  <circle cx="100" cy="80" r="35" fill="white" opacity="0.9"/>
  <path d="M60,145 C60,110 140,110 140,145" fill="white" opacity="0.9"/>
  <circle cx="85" cy="80" r="5" fill="#333"/>
  <circle cx="115" cy="80" r="5" fill="#333"/>
  <path d="M90,90 Q100,95 110,90" fill="none" stroke="#333" stroke-width="2"/>
  <path d="M65,60 C80,40 120,40 135,60" fill="none" stroke="#FF5F6D" stroke-width="8" opacity="0.7"/>
</svg>

<svg xmlns="http://www.w3.org/2000/svg" viewBox="0 0 512 512">
  <circle cx="256" cy="256" r="256" fill="#9C27B0"/>
  <path d="M256,128c-44.1,0-80,35.9-80,80c0,44.1,35.9,80,80,80c44.1,0,80-35.9,80-80C336,163.9,300.1,128,256,128z" fill="#FFFFFF"/>
  <path d="M396.8,358.4c0,0-46.2-29.6-71.4-33.3c-0.9-0.1-1.8-0.2-2.7-0.2c-0.1,0-0.2,0-0.3,0c-0.7,0-1.4,0.1-2.1,0.2
    c-16.3,2.8-32.5,8.1-47.4,15.6c-3.3,1.7-6.6,3.5-9.8,5.5c-0.1,0.1-0.2,0.1-0.4,0.2c-2,1.3-4.1,2.6-6.1,4c-0.1,0.1-0.2,0.1-0.3,0.2
    c-9.9,7-19.1,15.3-27.2,24.5c-0.1,0.1-0.2,0.2-0.3,0.3c-0.9,1-1.7,2-2.6,3.1c-0.3,0.3-0.6,0.7-0.9,1c-0.6,0.8-1.3,1.6-1.9,2.4
    c-0.3,0.4-0.6,0.7-0.9,1.1c-0.6,0.8-1.3,1.6-1.9,2.4c-0.2,0.3-0.5,0.6-0.7,0.9c-0.8,1-1.5,2-2.3,3c-0.1,0.1-0.2,0.2-0.2,0.3
    c-9.2,12.3-16.7,25.8-21.9,40.1h66.1h66.1c-5.2-14.3-12.7-27.8-21.9-40.1c-0.1-0.1-0.2-0.2-0.2-0.3c-0.8-1-1.5-2-2.3-3
    c-0.2-0.3-0.5-0.6-0.7-0.9c-0.6-0.8-1.3-1.6-1.9-2.4c-0.3-0.4-0.6-0.7-0.9-1.1c-0.6-0.8-1.3-1.6-1.9-2.4c-0.3-0.3-0.6-0.7-0.9-1
    c-0.9-1-1.7-2-2.6-3.1c-0.1-0.1-0.2-0.2-0.3-0.3c-8.1-9.3-17.3-17.5-27.2-24.5c-0.1-0.1-0.2-0.1-0.3-0.2c-2-1.4-4-2.7-6.1-4
    c-0.1-0.1-0.2-0.1-0.4-0.2c-3.2-2-6.5-3.8-9.8-5.5c-14.9-7.5-31.1-12.8-47.4-15.6c-0.7-0.1-1.4-0.2-2.1-0.2c-0.1,0-0.2,0-0.3,0
    c-0.9,0-1.8,0.1-2.7,0.2c-25.2,3.7-71.4,33.3-71.4,33.3c-9.9,8.2-15.4,20.4-15.4,33.3v34.9c0,7.7,6.3,14,14,14h226.8
    c7.7,0,14-6.3,14-14v-34.9C412.2,378.8,406.6,366.6,396.8,358.4z" fill="#FFFFFF"/>
</svg>