<?xml version="1.0" encoding="UTF-8"?>
<svg width="400" height="300" viewBox="0 0 400 300" xmlns="http://www.w3.org/2000/svg">
  <!-- Background -->
  <rect width="400" height="300" fill="#f0f2f8" rx="10" ry="10" />
  
  <!-- Image icon -->
  <path d="M200 100 C 170 100, 150 130, 150 160 C 150 190, 170 220, 200 220 C 230 220, 250 190, 250 160 C 250 130, 230 100, 200 100 Z" fill="#e0e3ef" />
  <path d="M180 140 A 10 10 0 1 0 180 160 A 10 10 0 1 0 180 140 Z" fill="#c8cfe0" />
  <path d="M150 200 L 180 170 L 200 190 L 230 160 L 250 200 Z" fill="#c8cfe0" />
  
  <!-- Icon text -->
  <text x="200" y="260" font-family="Arial, sans-serif" font-size="14" text-anchor="middle" fill="#6a5ae0">İcat Resmi</text>
</svg>