
<svg width="200" height="200" viewBox="0 0 200 200" xmlns="http://www.w3.org/2000/svg">
  <!-- Definitions -->
  <defs>
    <!-- Wing glow -->
    <filter id="wingGlow" x="-20%" y="-20%" width="140%" height="140%">
      <feGaussianBlur stdDeviation="2" result="blur" />
      <feComposite in="SourceGraphic" in2="blur" operator="over" />
    </filter>
    
    <!-- Sparkle glow -->
    <filter id="sparkleGlow" x="-100%" y="-100%" width="300%" height="300%">
      <feGaussianBlur stdDeviation="1" result="blur" />
      <feComposite in="SourceGraphic" in2="blur" operator="over" />
    </filter>
  </defs>
  
  <!-- Background Circle -->
  <circle cx="100" cy="100" r="95" fill="#004400" />
  
  <!-- Forest Background Elements -->
  <g id="background">
    <path d="M20,160 C40,140 60,150 80,130 C100,110 120,120 140,100 C160,80 180,90 200,70" 
          stroke="#006600" stroke-width="5" fill="none" opacity="0.4" />
    <path d="M0,180 C20,160 40,170 60,150 C80,130 100,140 120,120 C140,100 160,110 180,90" 
          stroke="#008800" stroke-width="5" fill="none" opacity="0.3" />
  </g>
  
  <!-- Fairy Body -->
  <circle cx="100" cy="110" r="25" fill="#E6FFE6" />
  
  <!-- Leaf Hair -->
  <path d="M80,90 C70,70 85,60 100,70 C115,60 130,70 120,90" fill="#00CC00" />
  <path d="M85,85 C80,75 90,65 100,70" stroke="#006600" stroke-width="1" fill="none" />
  <path d="M115,85 C120,75 110,65 100,70" stroke="#006600" stroke-width="1" fill="none" />
  
  <!-- Leaf Details -->
  <path d="M90,75 L95,80" stroke="#006600" stroke-width="1" />
  <path d="M110,75 L105,80" stroke="#006600" stroke-width="1" />
  
  <!-- Eyes -->
  <ellipse cx="90" cy="100" rx="5" ry="4" fill="#006600" />
  <ellipse cx="110" cy="100" rx="5" ry="4" fill="#006600" />
  
  <!-- Mouth -->
  <path d="M95,115 Q100,120 105,115" stroke="#006600" stroke-width="1" fill="none" />
  
  <!-- Wings -->
  <g id="wings" filter="url(#wingGlow)">
    <!-- Left Wing -->
    <path d="M85,95 C60,70 50,110 70,120" fill="#CCFFCC" opacity="0.7">
      <animate attributeName="d" 
               values="M85,95 C60,70 50,110 70,120;
                      M85,95 C55,80 45,110 70,120;
                      M85,95 C60,70 50,110 70,120" 
               dur="2s" repeatCount="indefinite" />
    </path>
    
    <!-- Right Wing -->
    <path d="M115,95 C140,70 150,110 130,120" fill="#CCFFCC" opacity="0.7">
      <animate attributeName="d" 
               values="M115,95 C140,70 150,110 130,120;
                      M115,95 C145,80 155,110 130,120;
                      M115,95 C140,70 150,110 130,120" 
               dur="2s" repeatCount="indefinite" begin="0.5s" />
    </path>
  </g>
  
  <!-- Arm and Hand (holding flower) -->
  <path d="M100,110 L90,130" stroke="#E6FFE6" stroke-width="3" stroke-linecap="round" />
  
  <!-- Flower in Hand -->
  <g id="flower" transform="translate(90, 130)">
    <circle cx="0" cy="0" r="5" fill="#FF99CC" />
    <circle cx="0" cy="-2" r="2" fill="#FFFF00" />
    <path d="M0,6 L0,15" stroke="#00AA00" stroke-width="1" />
    <path d="M-4,-4 L4,4" stroke="#00AA00" stroke-width="1" />
    <path d="M4,-4 L-4,4" stroke="#00AA00" stroke-width="1" />
  </g>
  
  <!-- Sparkles -->
  <g id="sparkles" filter="url(#sparkleGlow)">
    <circle cx="70" cy="70" r="2" fill="#FFFFFF">
      <animate attributeName="opacity" values="0;1;0" dur="2s" repeatCount="indefinite" />
    </circle>
    <circle cx="130" cy="70" r="2" fill="#FFFFFF">
      <animate attributeName="opacity" values="0;1;0" dur="2s" repeatCount="indefinite" begin="0.7s" />
    </circle>
    <circle cx="60" cy="120" r="2" fill="#FFFFFF">
      <animate attributeName="opacity" values="0;1;0" dur="2s" repeatCount="indefinite" begin="0.3s" />
    </circle>
    <circle cx="140" cy="120" r="2" fill="#FFFFFF">
      <animate attributeName="opacity" values="0;1;0" dur="2s" repeatCount="indefinite" begin="1s" />
    </circle>
    <circle cx="100" cy="60" r="2" fill="#FFFFFF">
      <animate attributeName="opacity" values="0;1;0" dur="2s" repeatCount="indefinite" begin="1.4s" />
    </circle>
  </g>
  
  <!-- Floating Animation for the Entire Fairy -->
  <animateTransform 
    xlink:href="#fairy-body"
    attributeName="transform"
    attributeType="XML"
    type="translate"
    values="0,0; 0,-5; 0,0"
    dur="4s"
    repeatCount="indefinite" />
</svg>
