
<svg width="200" height="200" viewBox="0 0 200 200" xmlns="http://www.w3.org/2000/svg">
  <!-- Background Circle -->
  <circle cx="100" cy="100" r="95" fill="#1A1A1A" />
  
  <!-- Night Sky Background with Stars -->
  <g id="ninja-sky">
    <circle cx="30" cy="30" r="1" fill="#FFFFFF" opacity="0.8" />
    <circle cx="50" cy="40" r="1" fill="#FFFFFF" opacity="0.6" />
    <circle cx="170" cy="30" r="1" fill="#FFFFFF" opacity="0.7" />
    <circle cx="150" cy="50" r="1" fill="#FFFFFF" opacity="0.5" />
    <circle cx="40" cy="160" r="1" fill="#FFFFFF" opacity="0.9" />
    <circle cx="160" cy="170" r="1" fill="#FFFFFF" opacity="0.7" />
    <circle cx="180" cy="100" r="1" fill="#FFFFFF" opacity="0.6" />
    <circle cx="20" cy="120" r="1" fill="#FFFFFF" opacity="0.5" />
  </g>
  
  <!-- Moon -->
  <circle cx="150" cy="40" r="15" fill="#E0E0E0" opacity="0.8" />
  <circle cx="142" cy="35" r="5" fill="#1A1A1A" opacity="0.5" />
  
  <!-- Ninja Shadow Form -->
  <circle cx="100" cy="100" r="40" fill="#333333" />
  
  <!-- Ninja Head -->
  <circle cx="100" cy="85" r="25" fill="#333333" />
  
  <!-- Ninja Face Mask -->
  <path d="M75,85 Q100,105 125,85" fill="#454545" />
  <path d="M75,85 L125,85 Q100,120 75,85" fill="#454545" />
  
  <!-- Ninja Eyes -->
  <ellipse cx="85" cy="80" rx="7" ry="4" fill="white" />
  <ellipse cx="115" cy="80" rx="7" ry="4" fill="white" />
  <circle cx="85" cy="80" r="3" fill="#D00000">
    <animate attributeName="opacity" values="0.7;1;0.7" dur="3s" repeatCount="indefinite" />
  </circle>
  <circle cx="115" cy="80" r="3" fill="#D00000">
    <animate attributeName="opacity" values="0.7;1;0.7" dur="3s" repeatCount="indefinite" />
  </circle>
  
  <!-- Ninja Headband -->
  <path d="M75,70 Q100,60 125,70" stroke="#D00000" stroke-width="4" fill="none" />
  <path d="M125,70 L135,90" stroke="#D00000" stroke-width="4" fill="none" />
  <path d="M135,90 L140,75" stroke="#D00000" stroke-width="4" fill="none" />
  
  <!-- Ninja Body -->
  <rect x="80" y="110" width="40" height="40" fill="#333333" />
  
  <!-- Ninja Belt -->
  <rect x="80" y="115" width="40" height="5" fill="#D00000" />
  
  <!-- Ninja Arm (Holding Shuriken) -->
  <path d="M80,130 L60,140" stroke="#333333" stroke-width="10" stroke-linecap="round" />
  
  <!-- Shuriken (Throwing Star) -->
  <g id="shuriken" transform="translate(55, 140) rotate(0)">
    <path d="M0,0 L10,-5 L0,-10 L-10,-5 L0,0 L5,0 L10,5 L5,10 L0,5 L-5,10 L-10,5 L-5,0 Z" fill="#A0A0A0" />
    <circle cx="0" cy="0" r="3" fill="#333333" />
    <animateTransform 
      attributeName="transform"
      attributeType="XML"
      type="rotate"
      from="0"
      to="360"
      dur="2s"
      repeatCount="indefinite" />
  </g>
  
  <!-- Ninja Arm (Other Side) -->
  <path d="M120,130 L140,140" stroke="#333333" stroke-width="10" stroke-linecap="round" />
  
  <!-- Ninja Hand Seal -->
  <circle cx="140" cy="140" r="7" fill="#333333" />
  
  <!-- Smoke Effects -->
  <g id="smoke">
    <circle cx="60" cy="150" r="10" fill="#666666" opacity="0.3">
      <animate attributeName="cy" values="150;140;150" dur="2s" repeatCount="indefinite" />
      <animate attributeName="opacity" values="0.3;0.1;0.3" dur="2s" repeatCount="indefinite" />
    </circle>
    <circle cx="70" cy="155" r="8" fill="#666666" opacity="0.3">
      <animate attributeName="cy" values="155;145;155" dur="2.5s" repeatCount="indefinite" />
      <animate attributeName="opacity" values="0.3;0.1;0.3" dur="2.5s" repeatCount="indefinite" />
    </circle>
    <circle cx="130" cy="150" r="10" fill="#666666" opacity="0.3">
      <animate attributeName="cy" values="150;140;150" dur="2.2s" repeatCount="indefinite" />
      <animate attributeName="opacity" values="0.3;0.1;0.3" dur="2.2s" repeatCount="indefinite" />
    </circle>
    <circle cx="140" cy="155" r="8" fill="#666666" opacity="0.3">
      <animate attributeName="cy" values="155;145;155" dur="1.8s" repeatCount="indefinite" />
      <animate attributeName="opacity" values="0.3;0.1;0.3" dur="1.8s" repeatCount="indefinite" />
    </circle>
  </g>
</svg>
