
<svg width="200" height="200" viewBox="0 0 200 200" xmlns="http://www.w3.org/2000/svg">
  <!-- Background Circle -->
  <circle cx="100" cy="100" r="95" fill="#D4A676" />
  
  <!-- Pixel Pirate Face - Base -->
  <rect x="60" y="60" width="20" height="20" fill="#F8D5A8" />
  <rect x="80" y="60" width="20" height="20" fill="#F8D5A8" />
  <rect x="100" y="60" width="20" height="20" fill="#F8D5A8" />
  <rect x="120" y="60" width="20" height="20" fill="#F8D5A8" />
  
  <rect x="60" y="80" width="20" height="20" fill="#F8D5A8" />
  <rect x="80" y="80" width="20" height="20" fill="#F8D5A8" />
  <rect x="100" y="80" width="20" height="20" fill="#F8D5A8" />
  <rect x="120" y="80" width="20" height="20" fill="#F8D5A8" />
  
  <rect x="60" y="100" width="20" height="20" fill="#F8D5A8" />
  <rect x="80" y="100" width="20" height="20" fill="#F8D5A8" />
  <rect x="100" y="100" width="20" height="20" fill="#F8D5A8" />
  <rect x="120" y="100" width="20" height="20" fill="#F8D5A8" />
  
  <rect x="80" y="120" width="20" height="20" fill="#F8D5A8" />
  <rect x="100" y="120" width="20" height="20" fill="#F8D5A8" />
  
  <!-- Pirate Hat -->
  <rect x="60" y="40" width="80" height="20" fill="#333333" />
  <rect x="80" y="20" width="40" height="20" fill="#333333" />
  <rect x="80" y="30" width="40" height="20" fill="#CC0000" />
  
  <!-- Eyes -->
  <rect x="70" y="80" width="20" height="20" fill="#333333" />
  <rect id="winking-eye" x="110" y="80" width="20" height="20" fill="#333333">
    <animate attributeName="height" values="20;2;20" dur="3s" repeatCount="indefinite" />
    <animate attributeName="y" values="80;90;80" dur="3s" repeatCount="indefinite" />
  </rect>
  
  <!-- Eyepatch -->
  <rect x="100" y="70" width="40" height="10" fill="#111111" />
  <rect x="110" y="60" width="20" height="10" fill="#111111" />
  <rect x="110" y="80" width="20" height="10" fill="#111111" />
  
  <!-- Mouth -->
  <rect x="80" y="120" width="40" height="10" fill="#CC0000" />
  
  <!-- Beard -->
  <rect x="70" y="110" width="10" height="30" fill="#8B4513" />
  <rect x="80" y="130" width="10" height="10" fill="#8B4513" />
  <rect x="90" y="130" width="10" height="10" fill="#8B4513" />
  <rect x="100" y="130" width="10" height="10" fill="#8B4513" />
  <rect x="110" y="130" width="10" height="10" fill="#8B4513" />
  <rect x="120" y="110" width="10" height="30" fill="#8B4513" />
  
  <!-- Ear Ring -->
  <rect x="130" y="100" width="10" height="10" fill="#FFD700">
    <animate attributeName="fill" values="#FFD700;#FFF000;#FFD700" dur="2s" repeatCount="indefinite" />
  </rect>
  
  <!-- Skull and Bones Symbol -->
  <g transform="translate(90, 30) scale(0.4)">
    <circle cx="50" cy="30" r="20" fill="#FFFFFF" />
    <rect x="40" y="60" width="20" height="10" fill="#FFFFFF" transform="rotate(45, 50, 65)" />
    <rect x="40" y="60" width="20" height="10" fill="#FFFFFF" transform="rotate(-45, 50, 65)" />
    <circle cx="40" cy="25" r="5" fill="#111111" />
    <circle cx="60" cy="25" r="5" fill="#111111" />
    <rect x="45" y="40" width="10" height="5" fill="#111111" />
  </g>
</svg>
