<svg width="200" height="200" viewBox="0 0 200 200" xmlns="http://www.w3.org/2000/svg">
  <!-- Background Circle -->
  <circle cx="100" cy="100" r="95" fill="#E0E0E0" />

  <!-- Robot Head -->
  <rect x="50" y="50" width="100" height="100" rx="15" ry="15" fill="#A0A0A0" stroke="#707070" stroke-width="2" />

  <!-- Antenna -->
  <line x1="100" y1="50" x2="100" y2="30" stroke="#707070" stroke-width="4" />
  <circle cx="100" cy="25" r="5" fill="#FF4040">
    <animate attributeName="fill" values="#FF4040;#FF0000;#FF4040" dur="1s" repeatCount="indefinite" />
  </circle>

  <!-- Eyes -->
  <circle cx="75" cy="85" r="15" fill="#303030" stroke="#000" stroke-width="2" />
  <circle cx="125" cy="85" r="15" fill="#303030" stroke="#000" stroke-width="2" />

  <!-- Pupils -->
  <circle cx="75" cy="85" r="8" fill="#00A0FF">
    <animate attributeName="opacity" values="1;0.5;1" dur="3s" repeatCount="indefinite" />
  </circle>
  <circle cx="125" cy="85" r="8" fill="#00A0FF">
    <animate attributeName="opacity" values="1;0.5;1" dur="3s" repeatCount="indefinite" />
  </circle>

  <!-- Mouth -->
  <rect x="70" y="115" width="60" height="15" rx="5" ry="5" fill="#505050" />

  <!-- Mouth grill lines -->
  <line x1="80" y1="115" x2="80" y2="130" stroke="#707070" stroke-width="2" />
  <line x1="90" y1="115" x2="90" y2="130" stroke="#707070" stroke-width="2" />
  <line x1="100" y1="115" x2="100" y2="130" stroke="#707070" stroke-width="2" />
  <line x1="110" y1="115" x2="110" y2="130" stroke="#707070" stroke-width="2" />
  <line x1="120" y1="115" x2="120" y2="130" stroke="#707070" stroke-width="2" />

  <!-- Electronic circuits -->
  <line x1="60" y1="140" x2="75" y2="140" stroke="#00A0FF" stroke-width="2">
    <animate attributeName="opacity" values="0.5;1;0.5" dur="2s" repeatCount="indefinite" />
  </line>
  <line x1="85" y1="140" x2="100" y2="140" stroke="#00A0FF" stroke-width="2">
    <animate attributeName="opacity" values="0.5;1;0.5" dur="2s" repeatCount="indefinite" begin="0.5s" />
  </line>
  <line x1="110" y1="140" x2="125" y2="140" stroke="#00A0FF" stroke-width="2">
    <animate attributeName="opacity" values="0.5;1;0.5" dur="2s" repeatCount="indefinite" begin="1s" />
  </line>
</svg>