
<svg width="200" height="200" viewBox="0 0 200 200" xmlns="http://www.w3.org/2000/svg">
  <!-- Definitions -->
  <defs>
    <!-- Lightning gradient -->
    <linearGradient id="lightningGlow" x1="0%" y1="0%" x2="100%" y2="100%">
      <stop offset="0%" stop-color="#FFFFFF" />
      <stop offset="100%" stop-color="#9933CC" />
    </linearGradient>
  </defs>
  
  <!-- Background Circle -->
  <circle cx="100" cy="100" r="95" fill="#330066" />
  
  <!-- Lightning Background -->
  <g id="background-lightning">
    <path d="M30,50 L50,70 L40,90 L60,100 L40,120" stroke="url(#lightningGlow)" stroke-width="3" fill="none">
      <animate attributeName="opacity" values="0.3;0.8;0.3" dur="3s" repeatCount="indefinite" />
    </path>
    <path d="M170,50 L150,70 L160,90 L140,100 L160,120" stroke="url(#lightningGlow)" stroke-width="3" fill="none">
      <animate attributeName="opacity" values="0.3;0.8;0.3" dur="3s" repeatCount="indefinite" begin="1.5s" />
    </path>
  </g>
  
  <!-- Rocker Face -->
  <circle cx="100" cy="100" r="50" fill="#F8D5A8" />
  
  <!-- Spiky Hair -->
  <path d="M100,50 L90,30 L85,55 L75,25 L70,55 L60,20 L65,60 L50,30 L60,65 L50,60
           L140,50 L150,30 L145,55 L155,25 L150,55 L160,20 L155,60 L170,30 L160,65 L170,60" 
        fill="#333333" />
  
  <!-- Dyed Hair Tips -->
  <path d="M90,30 L85,55 L75,25 L70,55 L60,20 L65,60 L50,30" fill="#9933CC" opacity="0.7" />
  <path d="M150,30 L145,55 L155,25 L150,55 L160,20 L155,60 L170,30" fill="#9933CC" opacity="0.7" />
  
  <!-- Eyes with Makeup -->
  <g id="eyes">
    <ellipse cx="80" cy="90" rx="10" ry="7" fill="#000000" />
    <ellipse cx="120" cy="90" rx="10" ry="7" fill="#000000" />
    <path d="M65,85 L75,83" stroke="#333333" stroke-width="2" />
    <path d="M85,83 L95,85" stroke="#333333" stroke-width="2" />
    <path d="M105,85 L115,83" stroke="#333333" stroke-width="2" />
    <path d="M125,83 L135,85" stroke="#333333" stroke-width="2" />
  </g>
  
  <!-- Nose and Mouth -->
  <path d="M97,100 L100,110 L103,100" fill="none" stroke="#333333" stroke-width="1" />
  <path d="M85,120 Q100,130 115,120" fill="none" stroke="#333333" stroke-width="2" />
  
  <!-- Electric Guitar -->
  <g id="guitar" transform="translate(120, 140) rotate(-30) scale(0.5)">
    <!-- Guitar Body -->
    <path d="M0,0 L20,40 L60,50 L80,30 L60,-10 Z" fill="#CC0000" stroke="#000000" stroke-width="2" />
    
    <!-- Guitar Neck -->
    <rect x="60" y="-20" width="10" height="120" fill="#8B4513" stroke="#000000" stroke-width="1" />
    
    <!-- Guitar Head -->
    <rect x="58" y="-40" width="14" height="20" fill="#8B4513" stroke="#000000" stroke-width="1" />
    
    <!-- Strings -->
    <line x1="65" y1="-40" x2="65" y2="50" stroke="#CCCCCC" stroke-width="1" />
    <line x1="67" y1="-40" x2="67" y2="50" stroke="#CCCCCC" stroke-width="1" />
    <line x1="63" y1="-40" x2="63" y2="50" stroke="#CCCCCC" stroke-width="1" />
    
    <!-- Frets -->
    <line x1="60" y1="0" x2="70" y2="0" stroke="#FFFFFF" stroke-width="1" />
    <line x1="60" y1="20" x2="70" y2="20" stroke="#FFFFFF" stroke-width="1" />
    <line x1="60" y1="40" x2="70" y2="40" stroke="#FFFFFF" stroke-width="1" />
  </g>
  
  <!-- Music Notes -->
  <g id="music-notes">
    <g transform="translate(60, 60) scale(0.6)">
      <path d="M5,20 L5,0 L15,5 L15,25 Z" fill="#FFFFFF" />
      <ellipse cx="0" cy="25" rx="5" ry="3" fill="#FFFFFF" />
      <ellipse cx="10" cy="30" rx="5" ry="3" fill="#FFFFFF" />
      <animate attributeName="opacity" values="0;1;0" dur="3s" repeatCount="indefinite" />
    </g>
    
    <g transform="translate(150, 80) scale(0.6)">
      <path d="M5,20 L5,0 L15,5 L15,25 Z" fill="#FFFFFF" />
      <ellipse cx="0" cy="25" rx="5" ry="3" fill="#FFFFFF" />
      <ellipse cx="10" cy="30" rx="5" ry="3" fill="#FFFFFF" />
      <animate attributeName="opacity" values="0;1;0" dur="3s" repeatCount="indefinite" begin="1.5s" />
    </g>
    
    <g transform="translate(40, 120) scale(0.6)">
      <path d="M5,20 L5,0 L15,5 L15,25 Z" fill="#FFFFFF" />
      <ellipse cx="0" cy="25" rx="5" ry="3" fill="#FFFFFF" />
      <ellipse cx="10" cy="30" rx="5" ry="3" fill="#FFFFFF" />
      <animate attributeName="opacity" values="0;1;0" dur="3s" repeatCount="indefinite" begin="1s" />
    </g>
  </g>
</svg>
