
<svg xmlns="http://www.w3.org/2000/svg" viewBox="0 0 1000 500">
  <!-- Simplified Turkey map for the game -->
  <!-- Each region has an id matching the city name -->
  <path id="istanbul-region" d="M170,120 L190,110 L210,120 L205,140 L180,145 Z" fill="transparent" stroke="white" stroke-width="1"></path>
  <path id="ankara-region" d="M300,150 L330,140 L350,170 L330,200 L300,190 Z" fill="transparent" stroke="white" stroke-width="1"></path>
  <path id="izmir-region" d="M120,200 L150,190 L170,210 L160,240 L120,230 Z" fill="transparent" stroke="white" stroke-width="1"></path>
  <path id="antalya-region" d="M220,280 L250,260 L290,280 L270,310 L230,300 Z" fill="transparent" stroke="white" stroke-width="1"></path>
  <path id="bursa-region" d="M210,150 L240,140 L260,160 L250,190 L220,180 Z" fill="transparent" stroke="white" stroke-width="1"></path>
  <path id="adana-region" d="M380,250 L410,240 L430,260 L420,290 L390,280 Z" fill="transparent" stroke="white" stroke-width="1"></path>
  <path id="konya-region" d="M290,220 L320,210 L340,230 L330,260 L300,250 Z" fill="transparent" stroke="white" stroke-width="1"></path>
  <path id="trabzon-region" d="M450,120 L480,110 L500,130 L490,150 L460,140 Z" fill="transparent" stroke="white" stroke-width="1"></path>
  <path id="erzurum-region" d="M500,150 L530,140 L550,160 L540,190 L510,180 Z" fill="transparent" stroke="white" stroke-width="1"></path>
  <path id="gaziantep-region" d="M450,260 L480,250 L500,270 L490,300 L460,290 Z" fill="transparent" stroke="white" stroke-width="1"></path>
  <path id="mersin-region" d="M330,280 L360,270 L380,290 L370,320 L340,310 Z" fill="transparent" stroke="white" stroke-width="1"></path>
  <path id="samsun-region" d="M380,130 L410,120 L430,140 L420,170 L390,160 Z" fill="transparent" stroke="white" stroke-width="1"></path>
  <path id="diyarbakir-region" d="M520,220 L550,210 L570,230 L560,260 L530,250 Z" fill="transparent" stroke="white" stroke-width="1"></path>
  <path id="eskisehir-region" d="M250,180 L280,170 L300,190 L290,220 L260,210 Z" fill="transparent" stroke="white" stroke-width="1"></path>
  <path id="urfa-region" d="M490,240 L520,230 L540,250 L530,280 L500,270 Z" fill="transparent" stroke="white" stroke-width="1"></path>
  
  <!-- City labels -->
  <text x="180" y="130" font-size="10" fill="white">İstanbul</text>
  <text x="315" y="170" font-size="10" fill="white">Ankara</text>
  <text x="140" y="220" font-size="10" fill="white">İzmir</text>
  <text x="250" y="290" font-size="10" fill="white">Antalya</text>
  <text x="230" y="165" font-size="10" fill="white">Bursa</text>
  <text x="400" y="260" font-size="10" fill="white">Adana</text>
  <text x="310" y="235" font-size="10" fill="white">Konya</text>
  <text x="475" y="130" font-size="10" fill="white">Trabzon</text>
  <text x="520" y="165" font-size="10" fill="white">Erzurum</text>
  <text x="470" y="280" font-size="10" fill="white">Gaziantep</text>
  <text x="350" y="295" font-size="10" fill="white">Mersin</text>
  <text x="400" y="145" font-size="10" fill="white">Samsun</text>
  <text x="540" y="235" font-size="10" fill="white">Diyarbakır</text>
  <text x="270" y="195" font-size="10" fill="white">Eskişehir</text>
  <text x="510" y="255" font-size="10" fill="white">Şanlıurfa</text>
</svg>
